<svg xmlns="http://www.w3.org/2000/svg" viewBox="0 0 400 400">
  <rect width="400" height="400" rx="20" fill="#fff0f5"/>
  <rect x="60" y="40" width="280" height="340" rx="10" fill="#fff" stroke="#ddd" stroke-width="2"/>
  <rect x="80" y="60" width="240" height="4" rx="2" fill="#ff69b4"/>
  <rect x="80" y="80" width="200" height="8" rx="4" fill="#f0f0f0"/>
  <rect x="80" y="100" width="220" height="8" rx="4" fill="#f0f0f0"/>
  <rect x="80" y="120" width="180" height="8" rx="4" fill="#f0f0f0"/>
  <rect x="80" y="150" width="240" height="4" rx="2" fill="#ff69b4"/>
  <rect x="80" y="170" width="210" height="8" rx="4" fill="#f0f0f0"/>
  <rect x="80" y="190" width="230" height="8" rx="4" fill="#f0f0f0"/>
  <rect x="80" y="210" width="190" height="8" rx="4" fill="#f0f0f0"/>
  <rect x="80" y="240" width="240" height="4" rx="2" fill="#ff69b4"/>
  <rect x="80" y="260" width="200" height="8" rx="4" fill="#f0f0f0"/>
  <rect x="80" y="280" width="220" height="8" rx="4" fill="#f0f0f0"/>
  <rect x="80" y="300" width="170" height="8" rx="4" fill="#f0f0f0"/>
  <circle cx="200" cy="350" r="12" fill="#ff69b4" opacity="0.3"/>
  <text x="200" y="355" text-anchor="middle" font-size="12" fill="#ff69b4" font-weight="bold">PDF</text>
</svg>
